<svg xmlns="http://www.w3.org/2000/svg" width="97" height="97" viewBox="0 0 97 97" fill="none">
  <path d="M66.66 40.95C66.66 31.95 60.66 22.95 48.66 22.95C36.66 22.95 30.66 31.95 30.66 40.95V49.95C30.66 54.246 29.122 61.6178 28.2485 65.4586C27.9599 66.7273 28.9204 67.95 30.2216 67.95H67.0984C68.3996 67.95 69.3601 66.7273 69.0715 65.4586C68.198 61.6178 66.66 54.246 66.66 49.95V40.95Z" fill="#01D964"/>
  <path fill-rule="evenodd" clip-rule="evenodd" d="M39.41 63.95C39.41 69.0586 43.5514 73.2 48.66 73.2C53.7686 73.2 57.91 69.0586 57.91 63.95H59.41C59.41 69.8871 54.5971 74.7 48.66 74.7C42.7229 74.7 37.91 69.8871 37.91 63.95H39.41Z" fill="black"/>
  <path fill-rule="evenodd" clip-rule="evenodd" d="M26.2784 53.9106L18.7609 56.6468L18.4188 55.7071L25.9364 52.9709L26.2784 53.9106Z" fill="black"/>
  <path fill-rule="evenodd" clip-rule="evenodd" d="M78.9012 34.7576L71.3836 37.4937L71.0416 36.5541L78.5592 33.8179L78.9012 34.7576Z" fill="black"/>
  <path fill-rule="evenodd" clip-rule="evenodd" d="M25.9364 37.4934L18.4188 34.7573L18.7608 33.8176L26.2784 36.5537L25.9364 37.4934Z" fill="black"/>
  <path fill-rule="evenodd" clip-rule="evenodd" d="M78.5592 56.6466L71.0416 53.9104L71.3836 52.9707L78.9012 55.7069L78.5592 56.6466Z" fill="black"/>
  <path fill-rule="evenodd" clip-rule="evenodd" d="M24.66 45.7322H16.66V44.7322H24.66V45.7322Z" fill="black"/>
  <path fill-rule="evenodd" clip-rule="evenodd" d="M80.66 45.7322H72.66V44.7322H80.66V45.7322Z" fill="black"/>
</svg>