<svg xmlns="http://www.w3.org/2000/svg" width="97" height="97" viewBox="0 0 97 97" fill="none">
  <path d="M70.98 42.95H26.98C25.8754 42.95 24.98 43.8454 24.98 44.95V75.95C24.98 77.0545 25.8754 77.95 26.98 77.95H70.98C72.0845 77.95 72.98 77.0545 72.98 75.95V44.95C72.98 43.8454 72.0845 42.95 70.98 42.95Z" fill="#01D964"/>
  <path fill-rule="evenodd" clip-rule="evenodd" d="M48.98 22.7C42.3526 22.7 36.98 28.0726 36.98 34.7V42.95H35.48V34.7C35.48 27.2442 41.5242 21.2 48.98 21.2C56.4358 21.2 62.48 27.2442 62.48 34.7V42.95H60.98V34.7C60.98 28.0726 55.6074 22.7 48.98 22.7Z" fill="black"/>
  <path fill-rule="evenodd" clip-rule="evenodd" d="M75.98 48.95H21.98V47.45H75.98V48.95Z" fill="black"/>
  <path fill-rule="evenodd" clip-rule="evenodd" d="M75.98 66.95H21.98V65.45H75.98V66.95Z" fill="black"/>
  <path fill-rule="evenodd" clip-rule="evenodd" d="M75.98 54.95H21.98V53.45H75.98V54.95Z" fill="black"/>
  <path fill-rule="evenodd" clip-rule="evenodd" d="M75.98 72.95H21.98V71.45H75.98V72.95Z" fill="black"/>
  <path fill-rule="evenodd" clip-rule="evenodd" d="M75.98 60.95H21.98V59.45H75.98V60.95Z" fill="black"/>
</svg>