<svg xmlns="http://www.w3.org/2000/svg" width="115" height="33" viewBox="0 0 115 33" fill="none">
  <path d="M46.9178 6.80308L45.3725 5.21263C42.9617 2.73151 39.8091 1.45914 36.5947 1.45914H36.4711C34.6166 1.45914 32.7003 1.90447 30.9695 2.79513L27.0133 4.83092L15.3302 0.950195L0 11.8289L10.1995 32.9502H20.77L26.2097 29.2603L29.9804 31.1053C31.7113 31.9959 33.5657 32.3776 35.4202 32.3776C39.2527 32.3776 43.0235 30.5327 45.4343 27.2246L48.0923 23.5347C51.8631 18.5088 51.3686 11.32 46.9178 6.80308ZM19.9045 30.0874H11.9304L3.64711 12.8468L15.8247 4.19473L23.6135 6.80308C20.2754 9.22058 18.2973 13.1013 18.2973 17.3637C18.2973 21.4989 20.2754 25.3796 23.428 27.7971L19.9045 30.0874ZM26.0243 25.9522C23.0571 24.1709 21.1408 20.8627 21.1408 17.3001C21.1408 13.483 23.1808 10.1112 26.5188 8.39354L27.3224 8.01183L29.1768 8.64801L33.2567 21.1808L26.0243 25.9522ZM45.867 21.8806L43.2089 25.5705C41.4163 28.0516 38.511 29.5784 35.4202 29.5784C33.9366 29.5784 32.5149 29.2603 31.2167 28.5605L28.9914 27.4154L36.5947 22.2623L31.3404 6.29414L30.8459 6.10328L32.2058 5.40348C33.5657 4.70368 35.0493 4.32197 36.5329 4.32197C39.1291 4.32197 41.5399 5.33986 43.3944 7.24841L44.9398 8.83887C48.3396 12.3379 48.7105 17.9363 45.867 21.8806Z" fill="white" fill-opacity="0.95"/>
  <path d="M69.1855 16.967C70.5175 16.4934 71.5535 15.0726 71.5535 13.119C71.5535 9.86298 69.1855 8.17578 65.3967 8.17578H59.0327V26.3502H65.9887C69.7775 26.3502 72.1455 24.5446 72.1455 21.1406C72.1455 19.2166 70.9023 17.5294 69.1855 16.967ZM62.0223 15.8126V10.8398H65.3671C67.4687 10.8398 68.5935 11.5798 68.5935 13.2966C68.5935 15.0134 67.4687 15.8126 65.3671 15.8126H62.0223ZM62.0223 18.3582H65.9295C68.0015 18.3582 69.1263 19.3646 69.1263 21.0222C69.1263 22.6502 68.0015 23.6862 65.9295 23.6862H62.0223V18.3582Z" fill="white" fill-opacity="0.95"/>
  <path d="M81.907 13.1487C81.6998 13.0303 81.1078 12.9119 80.4566 12.9119C79.1838 12.9119 78.0294 13.5927 77.5262 14.5695V13.2079H74.5662V26.3503H77.5262V17.8551C77.8222 16.4343 78.947 15.7535 80.1606 15.7535C80.7822 15.7535 81.4926 15.9015 81.907 16.1975V13.1487Z" fill="white" fill-opacity="0.95"/>
  <path d="M93.7232 26.3503V17.7367C93.7232 14.7471 91.7696 12.9119 88.4544 12.9119C85.7608 12.9119 83.6888 14.5991 83.304 16.8487H86.1456C86.4712 15.9311 87.2112 15.4279 88.3952 15.4279C90.0824 15.4279 90.9112 16.4639 90.9112 17.7959V18.8615C90.3784 18.4767 89.0464 18.0623 87.8624 18.0623C84.9616 18.0623 82.7416 19.8087 82.7416 22.2951C82.7416 24.9887 84.9616 26.5871 87.6552 26.5871C89.1352 26.5871 90.4672 26.0543 90.9112 25.6103V26.3503H93.7232ZM90.9112 22.8575C90.5856 23.6863 89.4016 24.1895 88.2176 24.1895C86.8856 24.1895 85.4944 23.6271 85.4944 22.2951C85.4944 20.9927 86.8856 20.4303 88.2176 20.4303C89.4016 20.4303 90.5856 20.9335 90.9112 21.7623V22.8575Z" fill="white" fill-opacity="0.95"/>
  <path d="M99.5828 13.2078H96.6228V26.3502H99.5828V13.2078ZM99.938 9.24139C99.938 8.23499 99.0796 7.43579 98.1028 7.43579C97.126 7.43579 96.2676 8.23499 96.2676 9.24139C96.2676 10.2478 97.126 11.047 98.1028 11.047C99.0796 11.047 99.938 10.2478 99.938 9.24139Z" fill="white" fill-opacity="0.95"/>
  <path d="M111.175 26.3501H114.135V7.11011H111.175V14.3325C110.583 13.5925 109.281 12.9117 107.83 12.9117C103.982 12.9117 101.733 16.0197 101.733 19.7789C101.733 23.5677 103.982 26.6461 107.83 26.6461C109.281 26.6461 110.583 25.9653 111.175 25.2253V26.3501ZM111.175 22.2653C110.672 23.3013 109.547 24.0117 108.334 24.0117C106.054 24.0117 104.693 22.2061 104.693 19.7789C104.693 17.3517 106.054 15.5461 108.334 15.5461C109.547 15.5461 110.672 16.2565 111.175 17.2925V22.2653Z" fill="white" fill-opacity="0.95"/>
</svg>