<svg width="115" height="33" viewBox="0 0 115 33" fill="none" xmlns="http://www.w3.org/2000/svg">
<g id="SVG">
<path id="Vector" d="M46.9178 6.35288L45.3725 4.76243C42.9617 2.28131 39.8091 1.00895 36.5947 1.00895H36.4711C34.6166 1.00895 32.7003 1.45427 30.9695 2.34493L27.0133 4.38072L15.3302 0.5L0 11.3787L10.1995 32.5H20.77L26.2097 28.8101L29.9804 30.6551C31.7113 31.5457 33.5657 31.9274 35.4202 31.9274C39.2527 31.9274 43.0235 30.0825 45.4343 26.7744L48.0923 23.0845C51.8631 18.0586 51.3686 10.8698 46.9178 6.35288ZM19.9045 29.6372H11.9304L3.64711 12.3966L15.8247 3.74453L23.6135 6.35288C20.2754 8.77038 18.2973 12.6511 18.2973 16.9135C18.2973 21.0487 20.2754 24.9294 23.428 27.3469L19.9045 29.6372ZM26.0243 25.502C23.0571 23.7207 21.1408 20.4125 21.1408 16.8499C21.1408 13.0328 23.1808 9.66103 26.5188 7.94334L27.3224 7.56163L29.1768 8.19781L33.2567 20.7306L26.0243 25.502ZM45.867 21.4304L43.2089 25.1203C41.4163 27.6014 38.511 29.1282 35.4202 29.1282C33.9366 29.1282 32.5149 28.8101 31.2167 28.1103L28.9914 26.9652L36.5947 21.8121L31.3404 5.84394L30.8459 5.65308L32.2058 4.95328C33.5657 4.25348 35.0493 3.87177 36.5329 3.87177C39.1291 3.87177 41.5399 4.88966 43.3944 6.79821L44.9398 8.38867C48.3396 11.8877 48.7105 17.4861 45.867 21.4304Z" fill="black" fill-opacity="0.95"/>
<path id="Vector_2" d="M69.1855 16.5168C70.5175 16.0432 71.5535 14.6224 71.5535 12.6688C71.5535 9.41279 69.1855 7.72559 65.3967 7.72559H59.0327V25.9H65.9887C69.7775 25.9 72.1455 24.0944 72.1455 20.6904C72.1455 18.7664 70.9023 17.0792 69.1855 16.5168ZM62.0223 15.3624V10.3896H65.3671C67.4687 10.3896 68.5935 11.1296 68.5935 12.8464C68.5935 14.5632 67.4687 15.3624 65.3671 15.3624H62.0223ZM62.0223 17.908H65.9295C68.0015 17.908 69.1263 18.9144 69.1263 20.572C69.1263 22.2 68.0015 23.236 65.9295 23.236H62.0223V17.908Z" fill="black" fill-opacity="0.95"/>
<path id="Vector_3" d="M81.907 12.6984C81.6998 12.58 81.1078 12.4616 80.4566 12.4616C79.1838 12.4616 78.0294 13.1424 77.5262 14.1192V12.7576H74.5662V25.9H77.5262V17.4048C77.8222 15.984 78.947 15.3032 80.1606 15.3032C80.7822 15.3032 81.4926 15.4512 81.907 15.7472V12.6984Z" fill="black" fill-opacity="0.95"/>
<path id="Vector_4" d="M93.7232 25.9V17.2864C93.7232 14.2968 91.7696 12.4616 88.4544 12.4616C85.7608 12.4616 83.6888 14.1488 83.304 16.3984H86.1456C86.4712 15.4808 87.2112 14.9776 88.3952 14.9776C90.0824 14.9776 90.9112 16.0136 90.9112 17.3456V18.4112C90.3784 18.0264 89.0464 17.612 87.8624 17.612C84.9616 17.612 82.7416 19.3584 82.7416 21.8448C82.7416 24.5384 84.9616 26.1368 87.6552 26.1368C89.1352 26.1368 90.4672 25.604 90.9112 25.16V25.9H93.7232ZM90.9112 22.4072C90.5856 23.236 89.4016 23.7392 88.2176 23.7392C86.8856 23.7392 85.4944 23.1768 85.4944 21.8448C85.4944 20.5424 86.8856 19.98 88.2176 19.98C89.4016 19.98 90.5856 20.4832 90.9112 21.312V22.4072Z" fill="black" fill-opacity="0.95"/>
<path id="Vector_5" d="M99.5828 12.7576H96.6228V25.9H99.5828V12.7576ZM99.938 8.7912C99.938 7.7848 99.0796 6.9856 98.1028 6.9856C97.126 6.9856 96.2676 7.7848 96.2676 8.7912C96.2676 9.7976 97.126 10.5968 98.1028 10.5968C99.0796 10.5968 99.938 9.7976 99.938 8.7912Z" fill="black" fill-opacity="0.95"/>
<path id="Vector_6" d="M111.175 25.9H114.135V6.66H111.175V13.8824C110.583 13.1424 109.281 12.4616 107.83 12.4616C103.982 12.4616 101.733 15.5696 101.733 19.3288C101.733 23.1176 103.982 26.196 107.83 26.196C109.281 26.196 110.583 25.5152 111.175 24.7752V25.9ZM111.175 21.8152C110.672 22.8512 109.547 23.5616 108.334 23.5616C106.054 23.5616 104.693 21.756 104.693 19.3288C104.693 16.9016 106.054 15.096 108.334 15.096C109.547 15.096 110.672 15.8064 111.175 16.8424V21.8152Z" fill="black" fill-opacity="0.95"/>
</g>
</svg>
