<svg xmlns="http://www.w3.org/2000/svg" width="97" height="97" viewBox="0 0 97 97" fill="none">
  <path d="M24.0651 26.0382L47.0651 18.3715C47.8862 18.0978 48.7738 18.0978 49.5949 18.3715L72.5949 26.0382C74.2283 26.5827 75.33 28.1112 75.33 29.8329V47.9499C75.33 65.8552 55.7015 77.2176 49.9163 80.1777C48.9087 80.6932 47.7513 80.6932 46.7437 80.1777C40.9585 77.2176 21.33 65.8552 21.33 47.9499V29.8329C21.33 28.1112 22.4317 26.5827 24.0651 26.0382Z" fill="#01D964"/>
  <mask id="mask0_1_83" style="mask-type:alpha" maskUnits="userSpaceOnUse" x="51" y="17" width="28" height="64">
    <path d="M78.33 47.95C78.33 68.95 51.33 80.95 51.33 80.95V17.95L78.33 26.95V47.95Z" fill="#C4C4C4"/>
  </mask>
  <g mask="url(#mask0_1_83)">
    <path fill-rule="evenodd" clip-rule="evenodd" d="M50.6185 52.7127C50.7495 52.3198 51.1742 52.1074 51.5672 52.2384L78.5672 61.2384C78.9601 61.3694 79.1725 61.7941 79.0415 62.1871C78.9105 62.58 78.4858 62.7924 78.0928 62.6614L51.0928 53.6614C50.6999 53.5304 50.4875 53.1057 50.6185 52.7127Z" fill="black"/>
    <path fill-rule="evenodd" clip-rule="evenodd" d="M50.6185 28.7127C50.7495 28.3198 51.1742 28.1074 51.5672 28.2384L78.5672 37.2384C78.9601 37.3694 79.1725 37.7941 79.0415 38.1871C78.9105 38.58 78.4858 38.7924 78.0928 38.6614L51.0928 29.6614C50.6999 29.5304 50.4875 29.1057 50.6185 28.7127Z" fill="black"/>
    <path fill-rule="evenodd" clip-rule="evenodd" d="M50.6185 64.7127C50.7495 64.3198 51.1742 64.1074 51.5672 64.2384L78.5672 73.2384C78.9601 73.3694 79.1725 73.7941 79.0415 74.1871C78.9105 74.58 78.4858 74.7924 78.0928 74.6614L51.0928 65.6614C50.6999 65.5304 50.4875 65.1057 50.6185 64.7127Z" fill="black"/>
    <path fill-rule="evenodd" clip-rule="evenodd" d="M50.6185 22.7127C50.7495 22.3198 51.1742 22.1074 51.5672 22.2384L78.5672 31.2384C78.9601 31.3694 79.1725 31.7941 79.0415 32.1871C78.9105 32.58 78.4858 32.7924 78.0928 32.6614L51.0928 23.6614C50.6999 23.5304 50.4875 23.1057 50.6185 22.7127Z" fill="black"/>
    <path fill-rule="evenodd" clip-rule="evenodd" d="M50.6185 40.7127C50.7495 40.3198 51.1742 40.1074 51.5672 40.2384L78.5672 49.2384C78.9601 49.3694 79.1725 49.7941 79.0415 50.1871C78.9105 50.58 78.4858 50.7924 78.0928 50.6614L51.0928 41.6614C50.6999 41.5304 50.4875 41.1057 50.6185 40.7127Z" fill="black"/>
    <path fill-rule="evenodd" clip-rule="evenodd" d="M50.6185 58.7127C50.7495 58.3198 51.1742 58.1074 51.5672 58.2384L78.5672 67.2384C78.9601 67.3694 79.1725 67.7941 79.0415 68.1871C78.9105 68.58 78.4858 68.7924 78.0928 68.6614L51.0928 59.6614C50.6999 59.5304 50.4875 59.1057 50.6185 58.7127Z" fill="black"/>
    <path fill-rule="evenodd" clip-rule="evenodd" d="M50.6185 76.7127C50.7495 76.3198 51.1742 76.1074 51.5672 76.2384L78.5672 85.2384C78.9601 85.3694 79.1725 85.7941 79.0415 86.1871C78.9105 86.58 78.4858 86.7924 78.0928 86.6614L51.0928 77.6614C50.6999 77.5304 50.4875 77.1057 50.6185 76.7127Z" fill="black"/>
    <path fill-rule="evenodd" clip-rule="evenodd" d="M50.6185 34.7127C50.7495 34.3198 51.1742 34.1074 51.5672 34.2384L78.5672 43.2384C78.9601 43.3694 79.1725 43.7941 79.0415 44.1871C78.9105 44.58 78.4858 44.7924 78.0928 44.6614L51.0928 35.6614C50.6999 35.5304 50.4875 35.1057 50.6185 34.7127Z" fill="black"/>
    <path fill-rule="evenodd" clip-rule="evenodd" d="M50.6185 46.7127C50.7495 46.3198 51.1742 46.1074 51.5672 46.2384L78.5672 55.2384C78.9601 55.3694 79.1725 55.7941 79.0415 56.1871C78.9105 56.58 78.4858 56.7924 78.0928 56.6614L51.0928 47.6614C50.6999 47.5304 50.4875 47.1057 50.6185 46.7127Z" fill="black"/>
    <path fill-rule="evenodd" clip-rule="evenodd" d="M50.6185 70.7127C50.7495 70.3198 51.1742 70.1074 51.5672 70.2384L78.5672 79.2384C78.9601 79.3694 79.1725 79.7941 79.0415 80.1871C78.9105 80.58 78.4858 80.7924 78.0928 80.6614L51.0928 71.6614C50.6999 71.5304 50.4875 71.1057 50.6185 70.7127Z" fill="black"/>
  </g>
</svg>